G04 #@! TF.FileFunction,Copper,L2,Bot,Signal*
%FSLAX46Y46*%
G04 Gerber Fmt 4.6, Leading zero omitted, Abs format (unit mm)*
G04 Created by KiCad (PCBNEW 4.0.6) date Fri Aug 11 16:17:47 2017*
%MOMM*%
%LPD*%
G01*
G04 APERTURE LIST*
%ADD10C,0.300000*%
%ADD11C,1.524000*%
%ADD12C,3.000000*%
%ADD13C,1.700000*%
%ADD14O,1.700000X1.700000*%
%ADD15C,0.500000*%
%ADD16C,1.000000*%
G04 APERTURE END LIST*
D10*
X174452856Y-81958571D02*
X174452856Y-80458571D01*
X174095713Y-80458571D01*
X173881428Y-80530000D01*
X173738570Y-80672857D01*
X173667142Y-80815714D01*
X173595713Y-81101429D01*
X173595713Y-81315714D01*
X173667142Y-81601429D01*
X173738570Y-81744286D01*
X173881428Y-81887143D01*
X174095713Y-81958571D01*
X174452856Y-81958571D01*
X172309999Y-80958571D02*
X172309999Y-82458571D01*
X172309999Y-81887143D02*
X172452856Y-81958571D01*
X172738570Y-81958571D01*
X172881428Y-81887143D01*
X172952856Y-81815714D01*
X173024285Y-81672857D01*
X173024285Y-81244286D01*
X172952856Y-81101429D01*
X172881428Y-81030000D01*
X172738570Y-80958571D01*
X172452856Y-80958571D01*
X172309999Y-81030000D01*
X170738570Y-81958571D02*
X171238570Y-81244286D01*
X171595713Y-81958571D02*
X171595713Y-80458571D01*
X171024285Y-80458571D01*
X170881427Y-80530000D01*
X170809999Y-80601429D01*
X170738570Y-80744286D01*
X170738570Y-80958571D01*
X170809999Y-81101429D01*
X170881427Y-81172857D01*
X171024285Y-81244286D01*
X171595713Y-81244286D01*
X168952856Y-81958571D02*
X168952856Y-80458571D01*
X168381428Y-80458571D01*
X168238570Y-80530000D01*
X168167142Y-80601429D01*
X168095713Y-80744286D01*
X168095713Y-80958571D01*
X168167142Y-81101429D01*
X168238570Y-81172857D01*
X168381428Y-81244286D01*
X168952856Y-81244286D01*
X167238570Y-81958571D02*
X167381428Y-81887143D01*
X167452856Y-81815714D01*
X167524285Y-81672857D01*
X167524285Y-81244286D01*
X167452856Y-81101429D01*
X167381428Y-81030000D01*
X167238570Y-80958571D01*
X167024285Y-80958571D01*
X166881428Y-81030000D01*
X166809999Y-81101429D01*
X166738570Y-81244286D01*
X166738570Y-81672857D01*
X166809999Y-81815714D01*
X166881428Y-81887143D01*
X167024285Y-81958571D01*
X167238570Y-81958571D01*
X166238570Y-80958571D02*
X165952856Y-81958571D01*
X165667142Y-81244286D01*
X165381427Y-81958571D01*
X165095713Y-80958571D01*
X163952856Y-81887143D02*
X164095713Y-81958571D01*
X164381427Y-81958571D01*
X164524284Y-81887143D01*
X164595713Y-81744286D01*
X164595713Y-81172857D01*
X164524284Y-81030000D01*
X164381427Y-80958571D01*
X164095713Y-80958571D01*
X163952856Y-81030000D01*
X163881427Y-81172857D01*
X163881427Y-81315714D01*
X164595713Y-81458571D01*
X163238570Y-81958571D02*
X163238570Y-80958571D01*
X163238570Y-81244286D02*
X163167142Y-81101429D01*
X163095713Y-81030000D01*
X162952856Y-80958571D01*
X162809999Y-80958571D01*
X161809999Y-81172857D02*
X161595713Y-81244286D01*
X161524285Y-81315714D01*
X161452856Y-81458571D01*
X161452856Y-81672857D01*
X161524285Y-81815714D01*
X161595713Y-81887143D01*
X161738571Y-81958571D01*
X162309999Y-81958571D01*
X162309999Y-80458571D01*
X161809999Y-80458571D01*
X161667142Y-80530000D01*
X161595713Y-80601429D01*
X161524285Y-80744286D01*
X161524285Y-80887143D01*
X161595713Y-81030000D01*
X161667142Y-81101429D01*
X161809999Y-81172857D01*
X162309999Y-81172857D01*
X160595713Y-81958571D02*
X160738571Y-81887143D01*
X160809999Y-81815714D01*
X160881428Y-81672857D01*
X160881428Y-81244286D01*
X160809999Y-81101429D01*
X160738571Y-81030000D01*
X160595713Y-80958571D01*
X160381428Y-80958571D01*
X160238571Y-81030000D01*
X160167142Y-81101429D01*
X160095713Y-81244286D01*
X160095713Y-81672857D01*
X160167142Y-81815714D01*
X160238571Y-81887143D01*
X160381428Y-81958571D01*
X160595713Y-81958571D01*
X158809999Y-81958571D02*
X158809999Y-81172857D01*
X158881428Y-81030000D01*
X159024285Y-80958571D01*
X159309999Y-80958571D01*
X159452856Y-81030000D01*
X158809999Y-81887143D02*
X158952856Y-81958571D01*
X159309999Y-81958571D01*
X159452856Y-81887143D01*
X159524285Y-81744286D01*
X159524285Y-81601429D01*
X159452856Y-81458571D01*
X159309999Y-81387143D01*
X158952856Y-81387143D01*
X158809999Y-81315714D01*
X158095713Y-81958571D02*
X158095713Y-80958571D01*
X158095713Y-81244286D02*
X158024285Y-81101429D01*
X157952856Y-81030000D01*
X157809999Y-80958571D01*
X157667142Y-80958571D01*
X156524285Y-81958571D02*
X156524285Y-80458571D01*
X156524285Y-81887143D02*
X156667142Y-81958571D01*
X156952856Y-81958571D01*
X157095714Y-81887143D01*
X157167142Y-81815714D01*
X157238571Y-81672857D01*
X157238571Y-81244286D01*
X157167142Y-81101429D01*
X157095714Y-81030000D01*
X156952856Y-80958571D01*
X156667142Y-80958571D01*
X156524285Y-81030000D01*
X154809999Y-80958571D02*
X154452856Y-81958571D01*
X154095714Y-80958571D01*
X152738571Y-81958571D02*
X153595714Y-81958571D01*
X153167142Y-81958571D02*
X153167142Y-80458571D01*
X153309999Y-80672857D01*
X153452857Y-80815714D01*
X153595714Y-80887143D01*
X152095714Y-81815714D02*
X152024286Y-81887143D01*
X152095714Y-81958571D01*
X152167143Y-81887143D01*
X152095714Y-81815714D01*
X152095714Y-81958571D01*
X151095714Y-80458571D02*
X150952857Y-80458571D01*
X150810000Y-80530000D01*
X150738571Y-80601429D01*
X150667142Y-80744286D01*
X150595714Y-81030000D01*
X150595714Y-81387143D01*
X150667142Y-81672857D01*
X150738571Y-81815714D01*
X150810000Y-81887143D01*
X150952857Y-81958571D01*
X151095714Y-81958571D01*
X151238571Y-81887143D01*
X151310000Y-81815714D01*
X151381428Y-81672857D01*
X151452857Y-81387143D01*
X151452857Y-81030000D01*
X151381428Y-80744286D01*
X151310000Y-80601429D01*
X151238571Y-80530000D01*
X151095714Y-80458571D01*
D11*
X177800000Y-97790000D03*
X175260000Y-97790000D03*
X172720000Y-97790000D03*
X180340000Y-66040000D03*
X175260000Y-66040000D03*
X170180000Y-66040000D03*
X228600000Y-63500000D03*
X224790000Y-63500000D03*
X233680000Y-92710000D03*
X219710000Y-92710000D03*
D12*
X203200000Y-64770000D03*
X198120000Y-64770000D03*
X208280000Y-64770000D03*
X193040000Y-64770000D03*
D13*
X232410000Y-97790000D03*
D14*
X229870000Y-97790000D03*
X227330000Y-97790000D03*
X224790000Y-97790000D03*
X222250000Y-97790000D03*
X219710000Y-97790000D03*
D11*
X213360000Y-87630000D03*
X213360000Y-90170000D03*
X213360000Y-92710000D03*
X189230000Y-87630000D03*
X189230000Y-92710000D03*
X213360000Y-73660000D03*
X213360000Y-76200000D03*
X213360000Y-78740000D03*
X189230000Y-73660000D03*
X189230000Y-78740000D03*
X158750000Y-97790000D03*
X156210000Y-97790000D03*
X153670000Y-97790000D03*
X161290000Y-66040000D03*
X156210000Y-66040000D03*
X151130000Y-66040000D03*
D15*
X175260000Y-97790000D02*
X176530000Y-99060000D01*
X209550000Y-87630000D02*
X213360000Y-87630000D01*
X208280000Y-88900000D02*
X209550000Y-87630000D01*
X208280000Y-97790000D02*
X208280000Y-88900000D01*
X207010000Y-99060000D02*
X208280000Y-97790000D01*
X176530000Y-99060000D02*
X207010000Y-99060000D01*
X156210000Y-97790000D02*
X156210000Y-95250000D01*
X154940000Y-93980000D02*
X151130000Y-93980000D01*
X156210000Y-95250000D02*
X154940000Y-93980000D01*
X151130000Y-93980000D02*
X149860000Y-95250000D01*
X149860000Y-101600000D02*
X151130000Y-102870000D01*
X149860000Y-95250000D02*
X149860000Y-101600000D01*
X151130000Y-102870000D02*
X228600000Y-102870000D01*
X228600000Y-102870000D02*
X229870000Y-101600000D01*
X229870000Y-101600000D02*
X229870000Y-97790000D01*
X156210000Y-97790000D02*
X156210000Y-99060000D01*
X175260000Y-96520000D02*
X175260000Y-97790000D01*
X173990000Y-95250000D02*
X175260000Y-96520000D01*
X168910000Y-95250000D02*
X173990000Y-95250000D01*
X163830000Y-100330000D02*
X168910000Y-95250000D01*
X157480000Y-100330000D02*
X163830000Y-100330000D01*
X156210000Y-99060000D02*
X157480000Y-100330000D01*
X219710000Y-92710000D02*
X228600000Y-92710000D01*
X229870000Y-93980000D02*
X229870000Y-97790000D01*
X228600000Y-92710000D02*
X229870000Y-93980000D01*
X213360000Y-73660000D02*
X218440000Y-73660000D01*
X219710000Y-74930000D02*
X219710000Y-92710000D01*
X218440000Y-73660000D02*
X219710000Y-74930000D01*
X213360000Y-76200000D02*
X215900000Y-76200000D01*
X227330000Y-95250000D02*
X227330000Y-97790000D01*
X226060000Y-93980000D02*
X227330000Y-95250000D01*
X218440000Y-93980000D02*
X226060000Y-93980000D01*
X217170000Y-92710000D02*
X218440000Y-93980000D01*
X217170000Y-77470000D02*
X217170000Y-92710000D01*
X215900000Y-76200000D02*
X217170000Y-77470000D01*
X232410000Y-97790000D02*
X233680000Y-96520000D01*
X233680000Y-96520000D02*
X233680000Y-92710000D01*
X213360000Y-78740000D02*
X209550000Y-78740000D01*
X177800000Y-97790000D02*
X205740000Y-97790000D01*
X205740000Y-97790000D02*
X207010000Y-96520000D01*
X207010000Y-96520000D02*
X207010000Y-81280000D01*
X207010000Y-81280000D02*
X209550000Y-78740000D01*
X213360000Y-78740000D02*
X214630000Y-78740000D01*
X214630000Y-92710000D02*
X213360000Y-92710000D01*
X215900000Y-91440000D02*
X214630000Y-92710000D01*
X215900000Y-80010000D02*
X215900000Y-91440000D01*
X214630000Y-78740000D02*
X215900000Y-80010000D01*
X158750000Y-97790000D02*
X158750000Y-95250000D01*
X177800000Y-95250000D02*
X177800000Y-97790000D01*
X176530000Y-93980000D02*
X177800000Y-95250000D01*
X160020000Y-93980000D02*
X176530000Y-93980000D01*
X158750000Y-95250000D02*
X160020000Y-93980000D01*
X233680000Y-92710000D02*
X233680000Y-91440000D01*
X209550000Y-72390000D02*
X209550000Y-78740000D01*
X210820000Y-71120000D02*
X209550000Y-72390000D01*
X219710000Y-71120000D02*
X210820000Y-71120000D01*
X220980000Y-72390000D02*
X219710000Y-71120000D01*
X222250000Y-73660000D02*
X220980000Y-72390000D01*
X222250000Y-88900000D02*
X222250000Y-73660000D01*
X223520000Y-90170000D02*
X222250000Y-88900000D01*
X232410000Y-90170000D02*
X223520000Y-90170000D01*
X233680000Y-91440000D02*
X232410000Y-90170000D01*
D16*
X193040000Y-64770000D02*
X193040000Y-72390000D01*
X191770000Y-73660000D02*
X189230000Y-73660000D01*
X193040000Y-72390000D02*
X191770000Y-73660000D01*
X180340000Y-66040000D02*
X180340000Y-67310000D01*
X180340000Y-77470000D02*
X181610000Y-78740000D01*
X181610000Y-78740000D02*
X189230000Y-78740000D01*
X180340000Y-67310000D02*
X180340000Y-77470000D01*
D15*
X224790000Y-97790000D02*
X224790000Y-96520000D01*
X212090000Y-90170000D02*
X213360000Y-90170000D01*
X210820000Y-91440000D02*
X212090000Y-90170000D01*
X210820000Y-93980000D02*
X210820000Y-91440000D01*
X212090000Y-95250000D02*
X210820000Y-93980000D01*
X223520000Y-95250000D02*
X212090000Y-95250000D01*
X224790000Y-96520000D02*
X223520000Y-95250000D01*
D16*
X198120000Y-64770000D02*
X198120000Y-86360000D01*
X196850000Y-87630000D02*
X189230000Y-87630000D01*
X198120000Y-86360000D02*
X196850000Y-87630000D01*
X151130000Y-66040000D02*
X151130000Y-67310000D01*
X151130000Y-68580000D02*
X152400000Y-69850000D01*
X152400000Y-69850000D02*
X176530000Y-69850000D01*
X176530000Y-69850000D02*
X177800000Y-71120000D01*
X177800000Y-71120000D02*
X177800000Y-77470000D01*
X177800000Y-77470000D02*
X180340000Y-80010000D01*
X180340000Y-80010000D02*
X180340000Y-91440000D01*
X180340000Y-91440000D02*
X181610000Y-92710000D01*
X181610000Y-92710000D02*
X189230000Y-92710000D01*
X151130000Y-67310000D02*
X151130000Y-68580000D01*
X175260000Y-66040000D02*
X175260000Y-62230000D01*
X175260000Y-62230000D02*
X157480000Y-62230000D01*
X156210000Y-63500000D02*
X156210000Y-66040000D01*
X157480000Y-62230000D02*
X156210000Y-63500000D01*
X203200000Y-64770000D02*
X203200000Y-63500000D01*
X203200000Y-63500000D02*
X201930000Y-62230000D01*
X201930000Y-62230000D02*
X175260000Y-62230000D01*
X203200000Y-64770000D02*
X203200000Y-67310000D01*
X228600000Y-67310000D02*
X228600000Y-63500000D01*
X227330000Y-68580000D02*
X228600000Y-67310000D01*
X204470000Y-68580000D02*
X227330000Y-68580000D01*
X203200000Y-67310000D02*
X204470000Y-68580000D01*
X224790000Y-63500000D02*
X224790000Y-64770000D01*
X209550000Y-66040000D02*
X208280000Y-64770000D01*
X223520000Y-66040000D02*
X209550000Y-66040000D01*
X224790000Y-64770000D02*
X223520000Y-66040000D01*
D15*
X222250000Y-97790000D02*
X222250000Y-100330000D01*
X153670000Y-100330000D02*
X153670000Y-97790000D01*
X154940000Y-101600000D02*
X153670000Y-100330000D01*
X220980000Y-101600000D02*
X154940000Y-101600000D01*
X222250000Y-100330000D02*
X220980000Y-101600000D01*
X172720000Y-97790000D02*
X172720000Y-99060000D01*
X219710000Y-99060000D02*
X219710000Y-97790000D01*
X218440000Y-100330000D02*
X219710000Y-99060000D01*
X173990000Y-100330000D02*
X218440000Y-100330000D01*
X172720000Y-99060000D02*
X173990000Y-100330000D01*
M02*
