G04 #@! TF.FileFunction,Legend,Top*
%FSLAX46Y46*%
G04 Gerber Fmt 4.6, Leading zero omitted, Abs format (unit mm)*
G04 Created by KiCad (PCBNEW 4.0.6) date Fri Aug 18 12:54:38 2017*
%MOMM*%
%LPD*%
G01*
G04 APERTURE LIST*
%ADD10C,0.100000*%
%ADD11C,0.150000*%
%ADD12C,0.120000*%
G04 APERTURE END LIST*
D10*
D11*
X157480000Y-63500000D02*
X157480000Y-50800000D01*
X157480000Y-50800000D02*
X127000000Y-50800000D01*
X127000000Y-50800000D02*
X127000000Y-63500000D01*
X127000000Y-63500000D02*
X157480000Y-63500000D01*
X157480000Y-77470000D02*
X157480000Y-64770000D01*
X157480000Y-64770000D02*
X127000000Y-64770000D01*
X127000000Y-64770000D02*
X127000000Y-77470000D01*
X127000000Y-77470000D02*
X157480000Y-77470000D01*
D12*
X132080000Y-40640000D02*
X132080000Y-48260000D01*
X152400000Y-48260000D02*
X152400000Y-40640000D01*
X152400000Y-46990000D02*
X132080000Y-46990000D01*
X132080000Y-40640000D02*
X152400000Y-40640000D01*
X132080000Y-48260000D02*
X152400000Y-48260000D01*
X113665000Y-78860000D02*
X120135000Y-78860000D01*
X120135000Y-78860000D02*
X120135000Y-76080000D01*
X120135000Y-76080000D02*
X113665000Y-76080000D01*
X113665000Y-76080000D02*
X113665000Y-78860000D01*
X113030000Y-78860000D02*
X112275000Y-78860000D01*
X112275000Y-78860000D02*
X112275000Y-77470000D01*
D11*
X125730000Y-74930000D02*
X125730000Y-40640000D01*
X125730000Y-40640000D02*
X106680000Y-40640000D01*
X106680000Y-40640000D02*
X106680000Y-74930000D01*
X106680000Y-74930000D02*
X125730000Y-74930000D01*
X176530000Y-83820000D02*
X176530000Y-40640000D01*
X176530000Y-40640000D02*
X158750000Y-40640000D01*
X158750000Y-40640000D02*
X158750000Y-83820000D01*
X158750000Y-83820000D02*
X176530000Y-83820000D01*
X196850000Y-83820000D02*
X196850000Y-40640000D01*
X196850000Y-40640000D02*
X179070000Y-40640000D01*
X179070000Y-40640000D02*
X179070000Y-83820000D01*
X179070000Y-83820000D02*
X196850000Y-83820000D01*
X121880952Y-51466667D02*
X122357143Y-51466667D01*
X121785714Y-51752381D02*
X122119047Y-50752381D01*
X122452381Y-51752381D01*
X123357143Y-51657143D02*
X123309524Y-51704762D01*
X123166667Y-51752381D01*
X123071429Y-51752381D01*
X122928571Y-51704762D01*
X122833333Y-51609524D01*
X122785714Y-51514286D01*
X122738095Y-51323810D01*
X122738095Y-51180952D01*
X122785714Y-50990476D01*
X122833333Y-50895238D01*
X122928571Y-50800000D01*
X123071429Y-50752381D01*
X123166667Y-50752381D01*
X123309524Y-50800000D01*
X123357143Y-50847619D01*
X123738095Y-51704762D02*
X123880952Y-51752381D01*
X124119048Y-51752381D01*
X124214286Y-51704762D01*
X124261905Y-51657143D01*
X124309524Y-51561905D01*
X124309524Y-51466667D01*
X124261905Y-51371429D01*
X124214286Y-51323810D01*
X124119048Y-51276190D01*
X123928571Y-51228571D01*
X123833333Y-51180952D01*
X123785714Y-51133333D01*
X123738095Y-51038095D01*
X123738095Y-50942857D01*
X123785714Y-50847619D01*
X123833333Y-50800000D01*
X123928571Y-50752381D01*
X124166667Y-50752381D01*
X124309524Y-50800000D01*
X124642857Y-50752381D02*
X125309524Y-50752381D01*
X124880952Y-51752381D01*
X126214286Y-51752381D02*
X125642857Y-51752381D01*
X125928571Y-51752381D02*
X125928571Y-50752381D01*
X125833333Y-50895238D01*
X125738095Y-50990476D01*
X125642857Y-51038095D01*
X126595238Y-50847619D02*
X126642857Y-50800000D01*
X126738095Y-50752381D01*
X126976191Y-50752381D01*
X127071429Y-50800000D01*
X127119048Y-50847619D01*
X127166667Y-50942857D01*
X127166667Y-51038095D01*
X127119048Y-51180952D01*
X126547619Y-51752381D01*
X127166667Y-51752381D01*
X127595238Y-51371429D02*
X128357143Y-51371429D01*
X128785714Y-50847619D02*
X128833333Y-50800000D01*
X128928571Y-50752381D01*
X129166667Y-50752381D01*
X129261905Y-50800000D01*
X129309524Y-50847619D01*
X129357143Y-50942857D01*
X129357143Y-51038095D01*
X129309524Y-51180952D01*
X128738095Y-51752381D01*
X129357143Y-51752381D01*
X129976190Y-50752381D02*
X130071429Y-50752381D01*
X130166667Y-50800000D01*
X130214286Y-50847619D01*
X130261905Y-50942857D01*
X130309524Y-51133333D01*
X130309524Y-51371429D01*
X130261905Y-51561905D01*
X130214286Y-51657143D01*
X130166667Y-51704762D01*
X130071429Y-51752381D01*
X129976190Y-51752381D01*
X129880952Y-51704762D01*
X129833333Y-51657143D01*
X129785714Y-51561905D01*
X129738095Y-51371429D01*
X129738095Y-51133333D01*
X129785714Y-50942857D01*
X129833333Y-50847619D01*
X129880952Y-50800000D01*
X129976190Y-50752381D01*
X130690476Y-51466667D02*
X131166667Y-51466667D01*
X130595238Y-51752381D02*
X130928571Y-50752381D01*
X131261905Y-51752381D01*
X132119048Y-51752381D02*
X131547619Y-51752381D01*
X131833333Y-51752381D02*
X131833333Y-50752381D01*
X131738095Y-50895238D01*
X131642857Y-50990476D01*
X131547619Y-51038095D01*
X121880952Y-65436667D02*
X122357143Y-65436667D01*
X121785714Y-65722381D02*
X122119047Y-64722381D01*
X122452381Y-65722381D01*
X123357143Y-65627143D02*
X123309524Y-65674762D01*
X123166667Y-65722381D01*
X123071429Y-65722381D01*
X122928571Y-65674762D01*
X122833333Y-65579524D01*
X122785714Y-65484286D01*
X122738095Y-65293810D01*
X122738095Y-65150952D01*
X122785714Y-64960476D01*
X122833333Y-64865238D01*
X122928571Y-64770000D01*
X123071429Y-64722381D01*
X123166667Y-64722381D01*
X123309524Y-64770000D01*
X123357143Y-64817619D01*
X123738095Y-65674762D02*
X123880952Y-65722381D01*
X124119048Y-65722381D01*
X124214286Y-65674762D01*
X124261905Y-65627143D01*
X124309524Y-65531905D01*
X124309524Y-65436667D01*
X124261905Y-65341429D01*
X124214286Y-65293810D01*
X124119048Y-65246190D01*
X123928571Y-65198571D01*
X123833333Y-65150952D01*
X123785714Y-65103333D01*
X123738095Y-65008095D01*
X123738095Y-64912857D01*
X123785714Y-64817619D01*
X123833333Y-64770000D01*
X123928571Y-64722381D01*
X124166667Y-64722381D01*
X124309524Y-64770000D01*
X124642857Y-64722381D02*
X125309524Y-64722381D01*
X124880952Y-65722381D01*
X126214286Y-65722381D02*
X125642857Y-65722381D01*
X125928571Y-65722381D02*
X125928571Y-64722381D01*
X125833333Y-64865238D01*
X125738095Y-64960476D01*
X125642857Y-65008095D01*
X126595238Y-64817619D02*
X126642857Y-64770000D01*
X126738095Y-64722381D01*
X126976191Y-64722381D01*
X127071429Y-64770000D01*
X127119048Y-64817619D01*
X127166667Y-64912857D01*
X127166667Y-65008095D01*
X127119048Y-65150952D01*
X126547619Y-65722381D01*
X127166667Y-65722381D01*
X127595238Y-65341429D02*
X128357143Y-65341429D01*
X128785714Y-64817619D02*
X128833333Y-64770000D01*
X128928571Y-64722381D01*
X129166667Y-64722381D01*
X129261905Y-64770000D01*
X129309524Y-64817619D01*
X129357143Y-64912857D01*
X129357143Y-65008095D01*
X129309524Y-65150952D01*
X128738095Y-65722381D01*
X129357143Y-65722381D01*
X129976190Y-64722381D02*
X130071429Y-64722381D01*
X130166667Y-64770000D01*
X130214286Y-64817619D01*
X130261905Y-64912857D01*
X130309524Y-65103333D01*
X130309524Y-65341429D01*
X130261905Y-65531905D01*
X130214286Y-65627143D01*
X130166667Y-65674762D01*
X130071429Y-65722381D01*
X129976190Y-65722381D01*
X129880952Y-65674762D01*
X129833333Y-65627143D01*
X129785714Y-65531905D01*
X129738095Y-65341429D01*
X129738095Y-65103333D01*
X129785714Y-64912857D01*
X129833333Y-64817619D01*
X129880952Y-64770000D01*
X129976190Y-64722381D01*
X130690476Y-65436667D02*
X131166667Y-65436667D01*
X130595238Y-65722381D02*
X130928571Y-64722381D01*
X131261905Y-65722381D01*
X131547619Y-64817619D02*
X131595238Y-64770000D01*
X131690476Y-64722381D01*
X131928572Y-64722381D01*
X132023810Y-64770000D01*
X132071429Y-64817619D01*
X132119048Y-64912857D01*
X132119048Y-65008095D01*
X132071429Y-65150952D01*
X131500000Y-65722381D01*
X132119048Y-65722381D01*
X141886667Y-39102381D02*
X141886667Y-39816667D01*
X141839047Y-39959524D01*
X141743809Y-40054762D01*
X141600952Y-40102381D01*
X141505714Y-40102381D01*
X142886667Y-40102381D02*
X142315238Y-40102381D01*
X142600952Y-40102381D02*
X142600952Y-39102381D01*
X142505714Y-39245238D01*
X142410476Y-39340476D01*
X142315238Y-39388095D01*
X110727381Y-77803333D02*
X111441667Y-77803333D01*
X111584524Y-77850953D01*
X111679762Y-77946191D01*
X111727381Y-78089048D01*
X111727381Y-78184286D01*
X110822619Y-77374762D02*
X110775000Y-77327143D01*
X110727381Y-77231905D01*
X110727381Y-76993809D01*
X110775000Y-76898571D01*
X110822619Y-76850952D01*
X110917857Y-76803333D01*
X111013095Y-76803333D01*
X111155952Y-76850952D01*
X111727381Y-77422381D01*
X111727381Y-76803333D01*
X100465713Y-41592381D02*
X100465713Y-40592381D01*
X100846666Y-40592381D01*
X100941904Y-40640000D01*
X100989523Y-40687619D01*
X101037142Y-40782857D01*
X101037142Y-40925714D01*
X100989523Y-41020952D01*
X100941904Y-41068571D01*
X100846666Y-41116190D01*
X100465713Y-41116190D01*
X101608570Y-41592381D02*
X101513332Y-41544762D01*
X101465713Y-41497143D01*
X101418094Y-41401905D01*
X101418094Y-41116190D01*
X101465713Y-41020952D01*
X101513332Y-40973333D01*
X101608570Y-40925714D01*
X101751428Y-40925714D01*
X101846666Y-40973333D01*
X101894285Y-41020952D01*
X101941904Y-41116190D01*
X101941904Y-41401905D01*
X101894285Y-41497143D01*
X101846666Y-41544762D01*
X101751428Y-41592381D01*
X101608570Y-41592381D01*
X102275237Y-40925714D02*
X102465713Y-41592381D01*
X102656190Y-41116190D01*
X102846666Y-41592381D01*
X103037142Y-40925714D01*
X103799047Y-41544762D02*
X103703809Y-41592381D01*
X103513332Y-41592381D01*
X103418094Y-41544762D01*
X103370475Y-41449524D01*
X103370475Y-41068571D01*
X103418094Y-40973333D01*
X103513332Y-40925714D01*
X103703809Y-40925714D01*
X103799047Y-40973333D01*
X103846666Y-41068571D01*
X103846666Y-41163810D01*
X103370475Y-41259048D01*
X104275237Y-41592381D02*
X104275237Y-40925714D01*
X104275237Y-41116190D02*
X104322856Y-41020952D01*
X104370475Y-40973333D01*
X104465713Y-40925714D01*
X104560952Y-40925714D01*
X104846666Y-41544762D02*
X104989523Y-41592381D01*
X105227619Y-41592381D01*
X105322857Y-41544762D01*
X105370476Y-41497143D01*
X105418095Y-41401905D01*
X105418095Y-41306667D01*
X105370476Y-41211429D01*
X105322857Y-41163810D01*
X105227619Y-41116190D01*
X105037142Y-41068571D01*
X104941904Y-41020952D01*
X104894285Y-40973333D01*
X104846666Y-40878095D01*
X104846666Y-40782857D01*
X104894285Y-40687619D01*
X104941904Y-40640000D01*
X105037142Y-40592381D01*
X105275238Y-40592381D01*
X105418095Y-40640000D01*
X106275238Y-40925714D02*
X106275238Y-41592381D01*
X105846666Y-40925714D02*
X105846666Y-41449524D01*
X105894285Y-41544762D01*
X105989523Y-41592381D01*
X106132381Y-41592381D01*
X106227619Y-41544762D01*
X106275238Y-41497143D01*
X106751428Y-40925714D02*
X106751428Y-41925714D01*
X106751428Y-40973333D02*
X106846666Y-40925714D01*
X107037143Y-40925714D01*
X107132381Y-40973333D01*
X107180000Y-41020952D01*
X107227619Y-41116190D01*
X107227619Y-41401905D01*
X107180000Y-41497143D01*
X107132381Y-41544762D01*
X107037143Y-41592381D01*
X106846666Y-41592381D01*
X106751428Y-41544762D01*
X107656190Y-40925714D02*
X107656190Y-41925714D01*
X107656190Y-40973333D02*
X107751428Y-40925714D01*
X107941905Y-40925714D01*
X108037143Y-40973333D01*
X108084762Y-41020952D01*
X108132381Y-41116190D01*
X108132381Y-41401905D01*
X108084762Y-41497143D01*
X108037143Y-41544762D01*
X107941905Y-41592381D01*
X107751428Y-41592381D01*
X107656190Y-41544762D01*
X108703809Y-41592381D02*
X108608571Y-41544762D01*
X108560952Y-41449524D01*
X108560952Y-40592381D01*
X108989524Y-40925714D02*
X109227619Y-41592381D01*
X109465715Y-40925714D02*
X109227619Y-41592381D01*
X109132381Y-41830476D01*
X109084762Y-41878095D01*
X108989524Y-41925714D01*
X109608572Y-41687619D02*
X110370477Y-41687619D01*
X111084763Y-40592381D02*
X110608572Y-40592381D01*
X110560953Y-41068571D01*
X110608572Y-41020952D01*
X110703810Y-40973333D01*
X110941906Y-40973333D01*
X111037144Y-41020952D01*
X111084763Y-41068571D01*
X111132382Y-41163810D01*
X111132382Y-41401905D01*
X111084763Y-41497143D01*
X111037144Y-41544762D01*
X110941906Y-41592381D01*
X110703810Y-41592381D01*
X110608572Y-41544762D01*
X110560953Y-41497143D01*
X111418096Y-40592381D02*
X111751429Y-41592381D01*
X112084763Y-40592381D01*
X112941906Y-41592381D02*
X112370477Y-41592381D01*
X112656191Y-41592381D02*
X112656191Y-40592381D01*
X112560953Y-40735238D01*
X112465715Y-40830476D01*
X112370477Y-40878095D01*
X165949524Y-43632381D02*
X165616190Y-43156190D01*
X165378095Y-43632381D02*
X165378095Y-42632381D01*
X165759048Y-42632381D01*
X165854286Y-42680000D01*
X165901905Y-42727619D01*
X165949524Y-42822857D01*
X165949524Y-42965714D01*
X165901905Y-43060952D01*
X165854286Y-43108571D01*
X165759048Y-43156190D01*
X165378095Y-43156190D01*
X166759048Y-43584762D02*
X166663810Y-43632381D01*
X166473333Y-43632381D01*
X166378095Y-43584762D01*
X166330476Y-43489524D01*
X166330476Y-43108571D01*
X166378095Y-43013333D01*
X166473333Y-42965714D01*
X166663810Y-42965714D01*
X166759048Y-43013333D01*
X166806667Y-43108571D01*
X166806667Y-43203810D01*
X166330476Y-43299048D01*
X167378095Y-43632381D02*
X167282857Y-43584762D01*
X167235238Y-43489524D01*
X167235238Y-42632381D01*
X168187620Y-43632381D02*
X168187620Y-43108571D01*
X168140001Y-43013333D01*
X168044763Y-42965714D01*
X167854286Y-42965714D01*
X167759048Y-43013333D01*
X168187620Y-43584762D02*
X168092382Y-43632381D01*
X167854286Y-43632381D01*
X167759048Y-43584762D01*
X167711429Y-43489524D01*
X167711429Y-43394286D01*
X167759048Y-43299048D01*
X167854286Y-43251429D01*
X168092382Y-43251429D01*
X168187620Y-43203810D01*
X168568572Y-42965714D02*
X168806667Y-43632381D01*
X169044763Y-42965714D02*
X168806667Y-43632381D01*
X168711429Y-43870476D01*
X168663810Y-43918095D01*
X168568572Y-43965714D01*
X169949525Y-43632381D02*
X169378096Y-43632381D01*
X169663810Y-43632381D02*
X169663810Y-42632381D01*
X169568572Y-42775238D01*
X169473334Y-42870476D01*
X169378096Y-42918095D01*
X186269524Y-43632381D02*
X185936190Y-43156190D01*
X185698095Y-43632381D02*
X185698095Y-42632381D01*
X186079048Y-42632381D01*
X186174286Y-42680000D01*
X186221905Y-42727619D01*
X186269524Y-42822857D01*
X186269524Y-42965714D01*
X186221905Y-43060952D01*
X186174286Y-43108571D01*
X186079048Y-43156190D01*
X185698095Y-43156190D01*
X187079048Y-43584762D02*
X186983810Y-43632381D01*
X186793333Y-43632381D01*
X186698095Y-43584762D01*
X186650476Y-43489524D01*
X186650476Y-43108571D01*
X186698095Y-43013333D01*
X186793333Y-42965714D01*
X186983810Y-42965714D01*
X187079048Y-43013333D01*
X187126667Y-43108571D01*
X187126667Y-43203810D01*
X186650476Y-43299048D01*
X187698095Y-43632381D02*
X187602857Y-43584762D01*
X187555238Y-43489524D01*
X187555238Y-42632381D01*
X188507620Y-43632381D02*
X188507620Y-43108571D01*
X188460001Y-43013333D01*
X188364763Y-42965714D01*
X188174286Y-42965714D01*
X188079048Y-43013333D01*
X188507620Y-43584762D02*
X188412382Y-43632381D01*
X188174286Y-43632381D01*
X188079048Y-43584762D01*
X188031429Y-43489524D01*
X188031429Y-43394286D01*
X188079048Y-43299048D01*
X188174286Y-43251429D01*
X188412382Y-43251429D01*
X188507620Y-43203810D01*
X188888572Y-42965714D02*
X189126667Y-43632381D01*
X189364763Y-42965714D02*
X189126667Y-43632381D01*
X189031429Y-43870476D01*
X188983810Y-43918095D01*
X188888572Y-43965714D01*
X189698096Y-42727619D02*
X189745715Y-42680000D01*
X189840953Y-42632381D01*
X190079049Y-42632381D01*
X190174287Y-42680000D01*
X190221906Y-42727619D01*
X190269525Y-42822857D01*
X190269525Y-42918095D01*
X190221906Y-43060952D01*
X189650477Y-43632381D01*
X190269525Y-43632381D01*
M02*
