G04 #@! TF.FileFunction,Legend,Bot*
%FSLAX46Y46*%
G04 Gerber Fmt 4.6, Leading zero omitted, Abs format (unit mm)*
G04 Created by KiCad (PCBNEW 4.0.6) date Fri Aug 11 16:17:47 2017*
%MOMM*%
%LPD*%
G01*
G04 APERTURE LIST*
%ADD10C,0.300000*%
%ADD11C,0.150000*%
%ADD12C,0.120000*%
G04 APERTURE END LIST*
D10*
D11*
X166370000Y-104140000D02*
X166370000Y-60960000D01*
X166370000Y-60960000D02*
X184150000Y-60960000D01*
X184150000Y-60960000D02*
X184150000Y-104140000D01*
X184150000Y-104140000D02*
X166370000Y-104140000D01*
X217170000Y-95250000D02*
X217170000Y-60960000D01*
X217170000Y-60960000D02*
X236220000Y-60960000D01*
X236220000Y-60960000D02*
X236220000Y-95250000D01*
X236220000Y-95250000D02*
X217170000Y-95250000D01*
D12*
X210820000Y-60960000D02*
X210820000Y-68580000D01*
X190500000Y-68580000D02*
X190500000Y-60960000D01*
X190500000Y-67310000D02*
X210820000Y-67310000D01*
X210820000Y-60960000D02*
X190500000Y-60960000D01*
X210820000Y-68580000D02*
X190500000Y-68580000D01*
X231140000Y-99180000D02*
X218320000Y-99180000D01*
X218320000Y-99180000D02*
X218320000Y-96400000D01*
X218320000Y-96400000D02*
X231140000Y-96400000D01*
X231140000Y-96400000D02*
X231140000Y-99180000D01*
X232410000Y-99180000D02*
X233800000Y-99180000D01*
X233800000Y-99180000D02*
X233800000Y-97790000D01*
D11*
X185420000Y-96520000D02*
X185420000Y-83820000D01*
X185420000Y-83820000D02*
X215900000Y-83820000D01*
X215900000Y-83820000D02*
X215900000Y-96520000D01*
X215900000Y-96520000D02*
X185420000Y-96520000D01*
X185420000Y-82550000D02*
X185420000Y-69850000D01*
X185420000Y-69850000D02*
X215900000Y-69850000D01*
X215900000Y-69850000D02*
X215900000Y-82550000D01*
X215900000Y-82550000D02*
X185420000Y-82550000D01*
X147320000Y-104140000D02*
X147320000Y-60960000D01*
X147320000Y-60960000D02*
X165100000Y-60960000D01*
X165100000Y-60960000D02*
X165100000Y-104140000D01*
X165100000Y-104140000D02*
X147320000Y-104140000D01*
X176950476Y-63952381D02*
X177283810Y-63476190D01*
X177521905Y-63952381D02*
X177521905Y-62952381D01*
X177140952Y-62952381D01*
X177045714Y-63000000D01*
X176998095Y-63047619D01*
X176950476Y-63142857D01*
X176950476Y-63285714D01*
X176998095Y-63380952D01*
X177045714Y-63428571D01*
X177140952Y-63476190D01*
X177521905Y-63476190D01*
X176140952Y-63904762D02*
X176236190Y-63952381D01*
X176426667Y-63952381D01*
X176521905Y-63904762D01*
X176569524Y-63809524D01*
X176569524Y-63428571D01*
X176521905Y-63333333D01*
X176426667Y-63285714D01*
X176236190Y-63285714D01*
X176140952Y-63333333D01*
X176093333Y-63428571D01*
X176093333Y-63523810D01*
X176569524Y-63619048D01*
X175521905Y-63952381D02*
X175617143Y-63904762D01*
X175664762Y-63809524D01*
X175664762Y-62952381D01*
X174712380Y-63952381D02*
X174712380Y-63428571D01*
X174759999Y-63333333D01*
X174855237Y-63285714D01*
X175045714Y-63285714D01*
X175140952Y-63333333D01*
X174712380Y-63904762D02*
X174807618Y-63952381D01*
X175045714Y-63952381D01*
X175140952Y-63904762D01*
X175188571Y-63809524D01*
X175188571Y-63714286D01*
X175140952Y-63619048D01*
X175045714Y-63571429D01*
X174807618Y-63571429D01*
X174712380Y-63523810D01*
X174331428Y-63285714D02*
X174093333Y-63952381D01*
X173855237Y-63285714D02*
X174093333Y-63952381D01*
X174188571Y-64190476D01*
X174236190Y-64238095D01*
X174331428Y-64285714D01*
X172950475Y-63952381D02*
X173521904Y-63952381D01*
X173236190Y-63952381D02*
X173236190Y-62952381D01*
X173331428Y-63095238D01*
X173426666Y-63190476D01*
X173521904Y-63238095D01*
X232274287Y-76652381D02*
X232274287Y-75652381D01*
X231893334Y-75652381D01*
X231798096Y-75700000D01*
X231750477Y-75747619D01*
X231702858Y-75842857D01*
X231702858Y-75985714D01*
X231750477Y-76080952D01*
X231798096Y-76128571D01*
X231893334Y-76176190D01*
X232274287Y-76176190D01*
X231131430Y-76652381D02*
X231226668Y-76604762D01*
X231274287Y-76557143D01*
X231321906Y-76461905D01*
X231321906Y-76176190D01*
X231274287Y-76080952D01*
X231226668Y-76033333D01*
X231131430Y-75985714D01*
X230988572Y-75985714D01*
X230893334Y-76033333D01*
X230845715Y-76080952D01*
X230798096Y-76176190D01*
X230798096Y-76461905D01*
X230845715Y-76557143D01*
X230893334Y-76604762D01*
X230988572Y-76652381D01*
X231131430Y-76652381D01*
X230464763Y-75985714D02*
X230274287Y-76652381D01*
X230083810Y-76176190D01*
X229893334Y-76652381D01*
X229702858Y-75985714D01*
X228940953Y-76604762D02*
X229036191Y-76652381D01*
X229226668Y-76652381D01*
X229321906Y-76604762D01*
X229369525Y-76509524D01*
X229369525Y-76128571D01*
X229321906Y-76033333D01*
X229226668Y-75985714D01*
X229036191Y-75985714D01*
X228940953Y-76033333D01*
X228893334Y-76128571D01*
X228893334Y-76223810D01*
X229369525Y-76319048D01*
X228464763Y-76652381D02*
X228464763Y-75985714D01*
X228464763Y-76176190D02*
X228417144Y-76080952D01*
X228369525Y-76033333D01*
X228274287Y-75985714D01*
X228179048Y-75985714D01*
X227893334Y-76604762D02*
X227750477Y-76652381D01*
X227512381Y-76652381D01*
X227417143Y-76604762D01*
X227369524Y-76557143D01*
X227321905Y-76461905D01*
X227321905Y-76366667D01*
X227369524Y-76271429D01*
X227417143Y-76223810D01*
X227512381Y-76176190D01*
X227702858Y-76128571D01*
X227798096Y-76080952D01*
X227845715Y-76033333D01*
X227893334Y-75938095D01*
X227893334Y-75842857D01*
X227845715Y-75747619D01*
X227798096Y-75700000D01*
X227702858Y-75652381D01*
X227464762Y-75652381D01*
X227321905Y-75700000D01*
X226464762Y-75985714D02*
X226464762Y-76652381D01*
X226893334Y-75985714D02*
X226893334Y-76509524D01*
X226845715Y-76604762D01*
X226750477Y-76652381D01*
X226607619Y-76652381D01*
X226512381Y-76604762D01*
X226464762Y-76557143D01*
X225988572Y-75985714D02*
X225988572Y-76985714D01*
X225988572Y-76033333D02*
X225893334Y-75985714D01*
X225702857Y-75985714D01*
X225607619Y-76033333D01*
X225560000Y-76080952D01*
X225512381Y-76176190D01*
X225512381Y-76461905D01*
X225560000Y-76557143D01*
X225607619Y-76604762D01*
X225702857Y-76652381D01*
X225893334Y-76652381D01*
X225988572Y-76604762D01*
X225083810Y-75985714D02*
X225083810Y-76985714D01*
X225083810Y-76033333D02*
X224988572Y-75985714D01*
X224798095Y-75985714D01*
X224702857Y-76033333D01*
X224655238Y-76080952D01*
X224607619Y-76176190D01*
X224607619Y-76461905D01*
X224655238Y-76557143D01*
X224702857Y-76604762D01*
X224798095Y-76652381D01*
X224988572Y-76652381D01*
X225083810Y-76604762D01*
X224036191Y-76652381D02*
X224131429Y-76604762D01*
X224179048Y-76509524D01*
X224179048Y-75652381D01*
X223750476Y-75985714D02*
X223512381Y-76652381D01*
X223274285Y-75985714D02*
X223512381Y-76652381D01*
X223607619Y-76890476D01*
X223655238Y-76938095D01*
X223750476Y-76985714D01*
X223131428Y-76747619D02*
X222369523Y-76747619D01*
X221655237Y-75652381D02*
X222131428Y-75652381D01*
X222179047Y-76128571D01*
X222131428Y-76080952D01*
X222036190Y-76033333D01*
X221798094Y-76033333D01*
X221702856Y-76080952D01*
X221655237Y-76128571D01*
X221607618Y-76223810D01*
X221607618Y-76461905D01*
X221655237Y-76557143D01*
X221702856Y-76604762D01*
X221798094Y-76652381D01*
X222036190Y-76652381D01*
X222131428Y-76604762D01*
X222179047Y-76557143D01*
X221321904Y-75652381D02*
X220988571Y-76652381D01*
X220655237Y-75652381D01*
X219798094Y-76652381D02*
X220369523Y-76652381D01*
X220083809Y-76652381D02*
X220083809Y-75652381D01*
X220179047Y-75795238D01*
X220274285Y-75890476D01*
X220369523Y-75938095D01*
X192103333Y-59142381D02*
X192103333Y-59856667D01*
X192150953Y-59999524D01*
X192246191Y-60094762D01*
X192389048Y-60142381D01*
X192484286Y-60142381D01*
X191103333Y-60142381D02*
X191674762Y-60142381D01*
X191389048Y-60142381D02*
X191389048Y-59142381D01*
X191484286Y-59285238D01*
X191579524Y-59380476D01*
X191674762Y-59428095D01*
X234252381Y-97456667D02*
X234966667Y-97456667D01*
X235109524Y-97409047D01*
X235204762Y-97313809D01*
X235252381Y-97170952D01*
X235252381Y-97075714D01*
X234347619Y-97885238D02*
X234300000Y-97932857D01*
X234252381Y-98028095D01*
X234252381Y-98266191D01*
X234300000Y-98361429D01*
X234347619Y-98409048D01*
X234442857Y-98456667D01*
X234538095Y-98456667D01*
X234680952Y-98409048D01*
X235252381Y-97837619D01*
X235252381Y-98456667D01*
X221019048Y-84486667D02*
X220542857Y-84486667D01*
X221114286Y-84772381D02*
X220780953Y-83772381D01*
X220447619Y-84772381D01*
X219542857Y-84677143D02*
X219590476Y-84724762D01*
X219733333Y-84772381D01*
X219828571Y-84772381D01*
X219971429Y-84724762D01*
X220066667Y-84629524D01*
X220114286Y-84534286D01*
X220161905Y-84343810D01*
X220161905Y-84200952D01*
X220114286Y-84010476D01*
X220066667Y-83915238D01*
X219971429Y-83820000D01*
X219828571Y-83772381D01*
X219733333Y-83772381D01*
X219590476Y-83820000D01*
X219542857Y-83867619D01*
X219161905Y-84724762D02*
X219019048Y-84772381D01*
X218780952Y-84772381D01*
X218685714Y-84724762D01*
X218638095Y-84677143D01*
X218590476Y-84581905D01*
X218590476Y-84486667D01*
X218638095Y-84391429D01*
X218685714Y-84343810D01*
X218780952Y-84296190D01*
X218971429Y-84248571D01*
X219066667Y-84200952D01*
X219114286Y-84153333D01*
X219161905Y-84058095D01*
X219161905Y-83962857D01*
X219114286Y-83867619D01*
X219066667Y-83820000D01*
X218971429Y-83772381D01*
X218733333Y-83772381D01*
X218590476Y-83820000D01*
X218257143Y-83772381D02*
X217590476Y-83772381D01*
X218019048Y-84772381D01*
X216685714Y-84772381D02*
X217257143Y-84772381D01*
X216971429Y-84772381D02*
X216971429Y-83772381D01*
X217066667Y-83915238D01*
X217161905Y-84010476D01*
X217257143Y-84058095D01*
X216304762Y-83867619D02*
X216257143Y-83820000D01*
X216161905Y-83772381D01*
X215923809Y-83772381D01*
X215828571Y-83820000D01*
X215780952Y-83867619D01*
X215733333Y-83962857D01*
X215733333Y-84058095D01*
X215780952Y-84200952D01*
X216352381Y-84772381D01*
X215733333Y-84772381D01*
X215304762Y-84391429D02*
X214542857Y-84391429D01*
X214114286Y-83867619D02*
X214066667Y-83820000D01*
X213971429Y-83772381D01*
X213733333Y-83772381D01*
X213638095Y-83820000D01*
X213590476Y-83867619D01*
X213542857Y-83962857D01*
X213542857Y-84058095D01*
X213590476Y-84200952D01*
X214161905Y-84772381D01*
X213542857Y-84772381D01*
X212923810Y-83772381D02*
X212828571Y-83772381D01*
X212733333Y-83820000D01*
X212685714Y-83867619D01*
X212638095Y-83962857D01*
X212590476Y-84153333D01*
X212590476Y-84391429D01*
X212638095Y-84581905D01*
X212685714Y-84677143D01*
X212733333Y-84724762D01*
X212828571Y-84772381D01*
X212923810Y-84772381D01*
X213019048Y-84724762D01*
X213066667Y-84677143D01*
X213114286Y-84581905D01*
X213161905Y-84391429D01*
X213161905Y-84153333D01*
X213114286Y-83962857D01*
X213066667Y-83867619D01*
X213019048Y-83820000D01*
X212923810Y-83772381D01*
X212209524Y-84486667D02*
X211733333Y-84486667D01*
X212304762Y-84772381D02*
X211971429Y-83772381D01*
X211638095Y-84772381D01*
X211352381Y-83867619D02*
X211304762Y-83820000D01*
X211209524Y-83772381D01*
X210971428Y-83772381D01*
X210876190Y-83820000D01*
X210828571Y-83867619D01*
X210780952Y-83962857D01*
X210780952Y-84058095D01*
X210828571Y-84200952D01*
X211400000Y-84772381D01*
X210780952Y-84772381D01*
X221019048Y-70516667D02*
X220542857Y-70516667D01*
X221114286Y-70802381D02*
X220780953Y-69802381D01*
X220447619Y-70802381D01*
X219542857Y-70707143D02*
X219590476Y-70754762D01*
X219733333Y-70802381D01*
X219828571Y-70802381D01*
X219971429Y-70754762D01*
X220066667Y-70659524D01*
X220114286Y-70564286D01*
X220161905Y-70373810D01*
X220161905Y-70230952D01*
X220114286Y-70040476D01*
X220066667Y-69945238D01*
X219971429Y-69850000D01*
X219828571Y-69802381D01*
X219733333Y-69802381D01*
X219590476Y-69850000D01*
X219542857Y-69897619D01*
X219161905Y-70754762D02*
X219019048Y-70802381D01*
X218780952Y-70802381D01*
X218685714Y-70754762D01*
X218638095Y-70707143D01*
X218590476Y-70611905D01*
X218590476Y-70516667D01*
X218638095Y-70421429D01*
X218685714Y-70373810D01*
X218780952Y-70326190D01*
X218971429Y-70278571D01*
X219066667Y-70230952D01*
X219114286Y-70183333D01*
X219161905Y-70088095D01*
X219161905Y-69992857D01*
X219114286Y-69897619D01*
X219066667Y-69850000D01*
X218971429Y-69802381D01*
X218733333Y-69802381D01*
X218590476Y-69850000D01*
X218257143Y-69802381D02*
X217590476Y-69802381D01*
X218019048Y-70802381D01*
X216685714Y-70802381D02*
X217257143Y-70802381D01*
X216971429Y-70802381D02*
X216971429Y-69802381D01*
X217066667Y-69945238D01*
X217161905Y-70040476D01*
X217257143Y-70088095D01*
X216304762Y-69897619D02*
X216257143Y-69850000D01*
X216161905Y-69802381D01*
X215923809Y-69802381D01*
X215828571Y-69850000D01*
X215780952Y-69897619D01*
X215733333Y-69992857D01*
X215733333Y-70088095D01*
X215780952Y-70230952D01*
X216352381Y-70802381D01*
X215733333Y-70802381D01*
X215304762Y-70421429D02*
X214542857Y-70421429D01*
X214114286Y-69897619D02*
X214066667Y-69850000D01*
X213971429Y-69802381D01*
X213733333Y-69802381D01*
X213638095Y-69850000D01*
X213590476Y-69897619D01*
X213542857Y-69992857D01*
X213542857Y-70088095D01*
X213590476Y-70230952D01*
X214161905Y-70802381D01*
X213542857Y-70802381D01*
X212923810Y-69802381D02*
X212828571Y-69802381D01*
X212733333Y-69850000D01*
X212685714Y-69897619D01*
X212638095Y-69992857D01*
X212590476Y-70183333D01*
X212590476Y-70421429D01*
X212638095Y-70611905D01*
X212685714Y-70707143D01*
X212733333Y-70754762D01*
X212828571Y-70802381D01*
X212923810Y-70802381D01*
X213019048Y-70754762D01*
X213066667Y-70707143D01*
X213114286Y-70611905D01*
X213161905Y-70421429D01*
X213161905Y-70183333D01*
X213114286Y-69992857D01*
X213066667Y-69897619D01*
X213019048Y-69850000D01*
X212923810Y-69802381D01*
X212209524Y-70516667D02*
X211733333Y-70516667D01*
X212304762Y-70802381D02*
X211971429Y-69802381D01*
X211638095Y-70802381D01*
X210780952Y-70802381D02*
X211352381Y-70802381D01*
X211066667Y-70802381D02*
X211066667Y-69802381D01*
X211161905Y-69945238D01*
X211257143Y-70040476D01*
X211352381Y-70088095D01*
X157900476Y-63952381D02*
X158233810Y-63476190D01*
X158471905Y-63952381D02*
X158471905Y-62952381D01*
X158090952Y-62952381D01*
X157995714Y-63000000D01*
X157948095Y-63047619D01*
X157900476Y-63142857D01*
X157900476Y-63285714D01*
X157948095Y-63380952D01*
X157995714Y-63428571D01*
X158090952Y-63476190D01*
X158471905Y-63476190D01*
X157090952Y-63904762D02*
X157186190Y-63952381D01*
X157376667Y-63952381D01*
X157471905Y-63904762D01*
X157519524Y-63809524D01*
X157519524Y-63428571D01*
X157471905Y-63333333D01*
X157376667Y-63285714D01*
X157186190Y-63285714D01*
X157090952Y-63333333D01*
X157043333Y-63428571D01*
X157043333Y-63523810D01*
X157519524Y-63619048D01*
X156471905Y-63952381D02*
X156567143Y-63904762D01*
X156614762Y-63809524D01*
X156614762Y-62952381D01*
X155662380Y-63952381D02*
X155662380Y-63428571D01*
X155709999Y-63333333D01*
X155805237Y-63285714D01*
X155995714Y-63285714D01*
X156090952Y-63333333D01*
X155662380Y-63904762D02*
X155757618Y-63952381D01*
X155995714Y-63952381D01*
X156090952Y-63904762D01*
X156138571Y-63809524D01*
X156138571Y-63714286D01*
X156090952Y-63619048D01*
X155995714Y-63571429D01*
X155757618Y-63571429D01*
X155662380Y-63523810D01*
X155281428Y-63285714D02*
X155043333Y-63952381D01*
X154805237Y-63285714D02*
X155043333Y-63952381D01*
X155138571Y-64190476D01*
X155186190Y-64238095D01*
X155281428Y-64285714D01*
X154471904Y-63047619D02*
X154424285Y-63000000D01*
X154329047Y-62952381D01*
X154090951Y-62952381D01*
X153995713Y-63000000D01*
X153948094Y-63047619D01*
X153900475Y-63142857D01*
X153900475Y-63238095D01*
X153948094Y-63380952D01*
X154519523Y-63952381D01*
X153900475Y-63952381D01*
M02*
