M48
;DRILL file {KiCad 4.0.6} date Fri Aug 11 16:17:34 2017
;FORMAT={-:-/ absolute / metric / decimal}
FMAT,2
METRIC,TZ
T1C0.762
T2C1.000
T3C1.520
%
G90
G05
M71
T1
X151.13Y-66.04
X153.67Y-97.79
X156.21Y-66.04
X156.21Y-97.79
X158.75Y-97.79
X161.29Y-66.04
X170.18Y-66.04
X172.72Y-97.79
X175.26Y-66.04
X175.26Y-97.79
X177.8Y-97.79
X180.34Y-66.04
X189.23Y-73.66
X189.23Y-78.74
X189.23Y-87.63
X189.23Y-92.71
X213.36Y-73.66
X213.36Y-76.2
X213.36Y-78.74
X213.36Y-87.63
X213.36Y-90.17
X213.36Y-92.71
X219.71Y-92.71
X224.79Y-63.5
X228.6Y-63.5
X233.68Y-92.71
T2
X193.04Y-64.77
X198.12Y-64.77
X208.28Y-64.77
X219.71Y-97.79
X222.25Y-97.79
X224.79Y-97.79
X227.33Y-97.79
X229.87Y-97.79
X232.41Y-97.79
T3
X203.2Y-64.77
T0
M30
